<?xml version="1.0" encoding="UTF-8"?>
<svg version="1.1" xmlns="http://www.w3.org/2000/svg" width="400" height="250">
<path d="M0 0 C5.61 0 11.22 0 17 0 C19.64 7.26 22.28 14.52 25 22 C27.59072904 15.13502578 27.59072904 15.13502578 30.17553711 8.26782227 C30.4978833 7.41760498 30.82022949 6.5673877 31.15234375 5.69140625 C31.48226318 4.81685791 31.81218262 3.94230957 32.15209961 3.04125977 C33 1 33 1 34 0 C39.61 0 45.22 0 51 0 C51 14.52 51 29.04 51 44 C47.04 44 43.08 44 39 44 C38.67 36.08 38.34 28.16 38 20 C37.04287109 22.47306641 37.04287109 22.47306641 36.06640625 24.99609375 C35.23190915 27.14328293 34.39726621 29.29041543 33.5625 31.4375 C33.14162109 32.52611328 32.72074219 33.61472656 32.28710938 34.73632812 C31.88427734 35.77080078 31.48144531 36.80527344 31.06640625 37.87109375 C30.69459229 38.82943115 30.32277832 39.78776855 29.93969727 40.77514648 C29 43 29 43 28 44 C26.00041636 44.04080783 23.99954746 44.04254356 22 44 C20.68608882 40.72973178 19.37411484 37.45868982 18.0625 34.1875 C17.68931641 33.25873047 17.31613281 32.32996094 16.93164062 31.37304688 C16.57392578 30.48037109 16.21621094 29.58769531 15.84765625 28.66796875 C15.51773682 27.84578857 15.18781738 27.0236084 14.84790039 26.17651367 C14.18283658 24.46933143 13.57937734 22.73813203 13 21 C12.67 28.59 12.34 36.18 12 44 C8.04 44 4.08 44 0 44 C0 29.48 0 14.96 0 0 Z " fill="#000000" transform="translate(150,74)"/>
<path d="M0 0 C4.99125 -0.103125 9.9825 -0.20625 15.125 -0.3125 C16.68879395 -0.35802002 18.25258789 -0.40354004 19.86376953 -0.45043945 C21.10755371 -0.46292725 22.35133789 -0.47541504 23.6328125 -0.48828125 C24.90012207 -0.51446533 26.16743164 -0.54064941 27.47314453 -0.56762695 C32.12737114 0.18144385 33.69364914 1.70326603 37 5 C38.72617094 8.45234188 38.50110436 12.22544766 38 16 C36 19.0625 36 19.0625 34 21 C34.825 21.78375 35.65 22.5675 36.5 23.375 C39.46326496 26.9478509 39.71950393 30.04199677 39.5 34.58984375 C38.68318836 38.5271311 36.92240049 40.28634241 34 43 C31.04183458 44.47908271 28.04551087 44.12201325 24.8046875 44.09765625 C23.51030762 44.09515869 22.21592773 44.09266113 20.88232422 44.09008789 C19.22990723 44.08098389 17.57749023 44.07187988 15.875 44.0625 C10.63625 44.041875 5.3975 44.02125 0 44 C0 29.48 0 14.96 0 0 Z M12 10 C12 11.98 12 13.96 12 16 C16.29 16 20.58 16 25 16 C25.33 14.35 25.66 12.7 26 11 C24.88873341 9.66098208 24.88873341 9.66098208 22.05859375 9.90234375 C20.86363281 9.91394531 19.66867188 9.92554687 18.4375 9.9375 C17.23996094 9.94652344 16.04242188 9.95554687 14.80859375 9.96484375 C13.41833984 9.98224609 13.41833984 9.98224609 12 10 Z M12 26 C12 28.64 12 31.28 12 34 C14.12472576 34.05386629 16.24983652 34.09273071 18.375 34.125 C20.15003906 34.15980469 20.15003906 34.15980469 21.9609375 34.1953125 C25.11153817 34.32866229 25.11153817 34.32866229 27 32 C26.83492354 29.42459787 26.83492354 29.42459787 26 27 C23.23547967 25.61773984 20.9538637 25.90474613 17.875 25.9375 C16.77929688 25.94652344 15.68359375 25.95554687 14.5546875 25.96484375 C13.29011719 25.98224609 13.29011719 25.98224609 12 26 Z " fill="#000000" transform="translate(221,74)"/>
<path d="M0 0 C13 0 13 0 17.0078125 3.796875 C18.09234587 5.41841033 19.1311874 7.07133208 20.125 8.75 C20.66125 9.575 21.1975 10.4 21.75 11.25 C22.74497091 12.78453226 23.72159082 14.33125251 24.67236328 15.89355469 C26.00260921 18.00413981 27.50310837 20.00414449 29 22 C29.33 14.74 29.66 7.48 30 0 C33.96 0 37.92 0 42 0 C42 14.52 42 29.04 42 44 C37.71 44 33.42 44 29 44 C25.75615423 40.74983094 24.03747011 38.60995313 21.875 34.75 C21.070625 33.44095703 21.070625 33.44095703 20.25 32.10546875 C19.25414392 30.48286742 18.27747815 28.84820148 17.32763672 27.19824219 C15.82598669 24.6290767 15.82598669 24.6290767 13 21 C12.67 28.59 12.34 36.18 12 44 C8.04 44 4.08 44 0 44 C0 29.48 0 14.96 0 0 Z " fill="#000000" transform="translate(239,132)"/>
<path d="M0 0 C1.27746094 -0.01675781 2.55492187 -0.03351563 3.87109375 -0.05078125 C11.01986989 0.6527491 14.97040312 4.17372492 19.5625 9.3125 C19.5625 9.9725 19.5625 10.6325 19.5625 11.3125 C18.10712432 12.15098804 16.64809627 12.98313934 15.1875 13.8125 C14.37539063 14.2765625 13.56328125 14.740625 12.7265625 15.21875 C10.5625 16.3125 10.5625 16.3125 8.5625 16.3125 C8.046875 15.6525 7.53125 14.9925 7 14.3125 C3.83447432 11.7151456 1.75899664 11.68270195 -2.24609375 11.84765625 C-5.73703091 12.58815807 -7.33365374 14.55120179 -9.4375 17.3125 C-11.04290839 20.52331678 -10.92213309 23.82960355 -10.4375 27.3125 C-8.19587575 31.56916699 -8.19587575 31.56916699 -4.4375 34.3125 C-2.77305539 34.4080931 -1.10468037 34.44234645 0.5625 34.4375 C1.8928125 34.44136719 1.8928125 34.44136719 3.25 34.4453125 C5.58926966 34.46377902 5.58926966 34.46377902 7.5625 33.3125 C7.8925 32.3225 8.2225 31.3325 8.5625 30.3125 C5.2625 30.3125 1.9625 30.3125 -1.4375 30.3125 C-1.4375 27.0125 -1.4375 23.7125 -1.4375 20.3125 C5.8225 20.3125 13.0825 20.3125 20.5625 20.3125 C21.52082119 36.84354051 21.52082119 36.84354051 18.95703125 40.7734375 C16.85423761 42.32784781 14.99502375 43.36156576 12.5625 44.3125 C11.799375 44.67601562 11.03625 45.03953125 10.25 45.4140625 C3.7343804 47.59224928 -5.65862817 47.61344891 -12 44.75 C-17.51595963 41.36110977 -21.4798445 36.47021638 -23.4375 30.3125 C-24.24344257 22.4686171 -24.53421889 14.72065533 -19.4375 8.3125 C-13.61780016 2.16182197 -8.54554495 0.02581736 0 0 Z " fill="#000000" transform="translate(321.4375,130.6875)"/>
<path d="M0 0 C1.27746094 -0.01675781 2.55492187 -0.03351563 3.87109375 -0.05078125 C11.01986989 0.6527491 14.97040312 4.17372492 19.5625 9.3125 C19.5625 9.9725 19.5625 10.6325 19.5625 11.3125 C18.10712432 12.15098804 16.64809627 12.98313934 15.1875 13.8125 C14.37539062 14.2765625 13.56328125 14.740625 12.7265625 15.21875 C10.5625 16.3125 10.5625 16.3125 8.5625 16.3125 C8.046875 15.6525 7.53125 14.9925 7 14.3125 C3.83447432 11.7151456 1.75899664 11.68270195 -2.24609375 11.84765625 C-5.73703091 12.58815807 -7.33365374 14.55120179 -9.4375 17.3125 C-11.04290839 20.52331678 -10.92213309 23.82960355 -10.4375 27.3125 C-8.19587575 31.56916699 -8.19587575 31.56916699 -4.4375 34.3125 C-2.77305539 34.4080931 -1.10468037 34.44234645 0.5625 34.4375 C1.8928125 34.44136719 1.8928125 34.44136719 3.25 34.4453125 C5.58926966 34.46377902 5.58926966 34.46377902 7.5625 33.3125 C7.8925 32.3225 8.2225 31.3325 8.5625 30.3125 C5.2625 30.3125 1.9625 30.3125 -1.4375 30.3125 C-1.4375 27.0125 -1.4375 23.7125 -1.4375 20.3125 C5.8225 20.3125 13.0825 20.3125 20.5625 20.3125 C21.52082119 36.84354051 21.52082119 36.84354051 18.95703125 40.7734375 C16.85423761 42.32784781 14.99502375 43.36156576 12.5625 44.3125 C11.799375 44.67601562 11.03625 45.03953125 10.25 45.4140625 C3.7343804 47.59224928 -5.65862817 47.61344891 -12 44.75 C-17.51595963 41.36110977 -21.4798445 36.47021638 -23.4375 30.3125 C-24.24344257 22.4686171 -24.53421889 14.72065533 -19.4375 8.3125 C-13.61780016 2.16182197 -8.54554495 0.02581736 0 0 Z " fill="#000000" transform="translate(139.4375,130.6875)"/>
<path d="M0 0 C4.516875 -0.061875 9.03375 -0.12375 13.6875 -0.1875 C15.81191528 -0.22846802 15.81191528 -0.22846802 17.97924805 -0.27026367 C19.10371338 -0.27775635 20.22817871 -0.28524902 21.38671875 -0.29296875 C22.53358154 -0.3086792 23.68044434 -0.32438965 24.86206055 -0.34057617 C29.60561099 0.17426494 32.10607101 2.00674557 35.25 5.5 C38.16950328 9.67071897 38.3391284 12.99785617 38 18 C36.35238431 22.20142002 34.3514118 24.99528597 31 28 C32.43164111 31.65938172 33.98934296 35.23988068 35.625 38.8125 C36.40875 40.524375 37.1925 42.23625 38 44 C33.38 44 28.76 44 24 44 C23.55269531 43.00097656 23.10539062 42.00195312 22.64453125 40.97265625 C22.03482251 39.66881757 21.4240918 38.36545645 20.8125 37.0625 C20.37454102 36.0734668 20.37454102 36.0734668 19.92773438 35.06445312 C18.93981122 32.89227139 18.93981122 32.89227139 17 30 C15.35 29.67 13.7 29.34 12 29 C12 33.95 12 38.9 12 44 C8.04 44 4.08 44 0 44 C0 29.48 0 14.96 0 0 Z M12 10 C12 12.97 12 15.94 12 19 C18.73881911 19.67277818 18.73881911 19.67277818 24.625 17 C25.07875 16.34 25.5325 15.68 26 15 C25.30487721 12.30317533 25.30487721 12.30317533 23 10 C19.30318076 9.53653446 15.70787035 9.71671619 12 10 Z " fill="#000000" transform="translate(329,74)"/>
<path d="M0 0 C5.28 0 10.56 0 16 0 C18.28512579 5.78156576 20.56361056 11.56568683 22.8359375 17.35229492 C23.61015025 19.32111406 24.38618394 21.28921814 25.1640625 23.2565918 C26.28082284 26.08196696 27.3910436 28.9098355 28.5 31.73828125 C28.84998047 32.61962234 29.19996094 33.50096344 29.56054688 34.40901184 C29.88087891 35.22963608 30.20121094 36.05026031 30.53125 36.89575195 C30.81548828 37.61745071 31.09972656 38.33914948 31.39257812 39.0827179 C32 41 32 41 32 44 C27.71 44 23.42 44 19 44 C18.34 41.69 17.68 39.38 17 37 C11.06 37 5.12 37 -1 37 C-1.66 39.31 -2.32 41.62 -3 44 C-7.29 44 -11.58 44 -16 44 C-15.3397687 40.69884352 -14.77752043 38.1185164 -13.6171875 35.06762695 C-13.20170654 33.96672478 -13.20170654 33.96672478 -12.77783203 32.84358215 C-12.47989746 32.06633286 -12.18196289 31.28908356 -11.875 30.48828125 C-11.41456299 29.27412788 -11.41456299 29.27412788 -10.94482422 28.03544617 C-10.29771732 26.33112591 -9.64875295 24.62750989 -8.99804688 22.92456055 C-8.00000131 20.31250344 -7.00731436 17.69846047 -6.015625 15.08398438 C-5.3857256 13.42696586 -4.75552761 11.77006082 -4.125 10.11328125 C-3.82706543 9.32995926 -3.52913086 8.54663727 -3.22216797 7.73957825 C-1.11801603 2.23603205 -1.11801603 2.23603205 0 0 Z M7 13 C6.32739649 14.76858691 5.66211605 16.53996016 5 18.3125 C4.62875 19.29863281 4.2575 20.28476563 3.875 21.30078125 C2.84581498 24.00271656 2.84581498 24.00271656 3 27 C6.3 27 9.6 27 13 27 C11.51868325 19.84207314 11.51868325 19.84207314 9 13 C8.34 13 7.68 13 7 13 Z " fill="#000000" transform="translate(72,132)"/>
<path d="M0 0 C2.35178904 1.19274115 4.58798201 2.43268888 6.7890625 3.8828125 C5.94162333 8.36352534 3.76871261 10.52115597 0.7890625 13.8828125 C0.14839844 13.5940625 -0.49226563 13.3053125 -1.15234375 13.0078125 C-6.45008182 10.73396963 -10.44466359 9.38139738 -16.2109375 9.8828125 C-15.8809375 11.2028125 -15.5509375 12.5228125 -15.2109375 13.8828125 C-13.69113281 14.24632813 -13.69113281 14.24632813 -12.140625 14.6171875 C-10.78890917 14.95511646 -9.43735507 15.29369274 -8.0859375 15.6328125 C-7.08820312 15.86871094 -7.08820312 15.86871094 -6.0703125 16.109375 C-0.2276369 17.59868447 4.3414907 19.71145481 7.7890625 24.8828125 C8.53988681 29.41663621 8.81175284 33.950304 6.62109375 38.08984375 C2.77551544 42.78560132 -0.74316657 44.63099914 -6.84765625 45.25390625 C-15.19872706 45.50339115 -22.27327901 45.1679386 -29.2109375 39.8828125 C-29.8709375 38.8928125 -30.5309375 37.9028125 -31.2109375 36.8828125 C-29.2309375 34.2428125 -27.2509375 31.6028125 -25.2109375 28.8828125 C-23.8909375 29.5428125 -22.5709375 30.2028125 -21.2109375 30.8828125 C-16.46944421 32.97521237 -12.48916289 34.38550063 -7.2109375 33.8828125 C-6.2209375 33.3878125 -6.2209375 33.3878125 -5.2109375 32.8828125 C-5.2109375 31.8928125 -5.2109375 30.9028125 -5.2109375 29.8828125 C-5.81679688 29.71265625 -6.42265625 29.5425 -7.046875 29.3671875 C-24.61025446 24.28731775 -24.61025446 24.28731775 -28.2109375 19.8828125 C-29.80215204 15.10916888 -30.00972835 10.73264395 -28.0234375 6.1328125 C-21.19829548 -2.33977759 -9.97992371 -3.47233355 0 0 Z " fill="#000000" transform="translate(64.2109375,74.1171875)"/>
<path d="M0 0 C3.96 0 7.92 0 12 0 C12.01458252 0.85754883 12.02916504 1.71509766 12.04418945 2.59863281 C12.10535478 5.78960413 12.17952762 8.97993587 12.26245117 12.17041016 C12.29564193 13.54952667 12.32369217 14.92877711 12.34643555 16.30810547 C12.38008642 18.29422306 12.43394729 20.27996559 12.48828125 22.265625 C12.51446533 23.45961914 12.54064941 24.65361328 12.56762695 25.88378906 C13.02943404 29.2121378 13.65248158 30.63853593 16 33 C18.16547803 33.62963937 18.16547803 33.62963937 20.5 33.5 C21.2734375 33.5103125 22.046875 33.520625 22.84375 33.53125 C25.1069625 33.17184696 25.1069625 33.17184696 26.6027832 31.38769531 C28.44676441 28.23652701 28.43188728 25.90594011 28.51171875 22.265625 C28.54716797 20.97011719 28.58261719 19.67460937 28.61914062 18.33984375 C28.64223867 16.97656774 28.66502114 15.61328636 28.6875 14.25 C28.72068648 12.87106138 28.75517738 11.4921535 28.79101562 10.11328125 C28.87352291 6.74226941 28.94266771 3.37151872 29 0 C32.96 0 36.92 0 41 0 C41.07447267 4.58980814 41.12875322 9.17926014 41.16479492 13.76953125 C41.17982869 15.32916394 41.20026135 16.88875472 41.22631836 18.44824219 C41.26294211 20.69737116 41.27978021 22.94593847 41.29296875 25.1953125 C41.30845261 25.8861795 41.32393646 26.57704651 41.33988953 27.28884888 C41.34148581 31.94000442 40.42957841 35.0461586 38 39 C31.57412878 45.08766747 25.22750842 45.53713691 16.6796875 45.31640625 C10.44019555 44.77988943 6.82928761 42.92309723 2.5625 38.4375 C-0.1820536 34.15599639 -0.1335583 30.40167849 -0.09765625 25.48828125 C-0.0962413 24.76005661 -0.09482635 24.03183197 -0.09336853 23.28153992 C-0.08777659 20.95848461 -0.07522562 18.63552612 -0.0625 16.3125 C-0.05748396 14.73632952 -0.05292123 13.16015752 -0.04882812 11.58398438 C-0.0378098 7.72261902 -0.02055074 3.86132592 0 0 Z " fill="#000000" transform="translate(178,132)"/>
<path d="M0 0 C3.96 0 7.92 0 12 0 C12.01458252 0.85754883 12.02916504 1.71509766 12.04418945 2.59863281 C12.10535478 5.78960413 12.17952762 8.97993587 12.26245117 12.17041016 C12.29564193 13.54952667 12.32369217 14.92877711 12.34643555 16.30810547 C12.38008642 18.29422306 12.43394729 20.27996559 12.48828125 22.265625 C12.51446533 23.45961914 12.54064941 24.65361328 12.56762695 25.88378906 C13.02943404 29.2121378 13.65248158 30.63853593 16 33 C18.16547803 33.62963937 18.16547803 33.62963937 20.5 33.5 C21.2734375 33.5103125 22.046875 33.520625 22.84375 33.53125 C25.1069625 33.17184696 25.1069625 33.17184696 26.6027832 31.38769531 C28.44676441 28.23652701 28.43188728 25.90594011 28.51171875 22.265625 C28.54716797 20.97011719 28.58261719 19.67460938 28.61914062 18.33984375 C28.64223867 16.97656774 28.66502114 15.61328636 28.6875 14.25 C28.72068648 12.87106138 28.75517738 11.4921535 28.79101562 10.11328125 C28.87352291 6.74226941 28.94266771 3.37151872 29 0 C32.96 0 36.92 0 41 0 C41.07447267 4.58980814 41.12875322 9.17926014 41.16479492 13.76953125 C41.17982869 15.32916394 41.20026135 16.88875472 41.22631836 18.44824219 C41.26294211 20.69737116 41.27978021 22.94593847 41.29296875 25.1953125 C41.30845261 25.8861795 41.32393646 26.57704651 41.33988953 27.28884888 C41.34148581 31.94000442 40.42957841 35.0461586 38 39 C31.57412878 45.08766747 25.22750842 45.53713691 16.6796875 45.31640625 C10.44019555 44.77988943 6.82928761 42.92309723 2.5625 38.4375 C-0.1820536 34.15599639 -0.1335583 30.40167849 -0.09765625 25.48828125 C-0.0962413 24.76005661 -0.09482635 24.03183197 -0.09336853 23.28153992 C-0.08777659 20.95848461 -0.07522562 18.63552612 -0.0625 16.3125 C-0.05748396 14.73632952 -0.05292123 13.16015752 -0.04882812 11.58398438 C-0.0378098 7.72261902 -0.02055074 3.86132592 0 0 Z " fill="#000000" transform="translate(89,74)"/>
<path d="M0 0 C10.89 0 21.78 0 33 0 C33 3.3 33 6.6 33 10 C26.07 10 19.14 10 12 10 C12 11.98 12 13.96 12 16 C18.93 16 25.86 16 33 16 C33 19.3 33 22.6 33 26 C26.07 26 19.14 26 12 26 C12 28.64 12 31.28 12 34 C18.93 34 25.86 34 33 34 C33 37.3 33 40.6 33 44 C22.11 44 11.22 44 0 44 C0 29.48 0 14.96 0 0 Z " fill="#000000" transform="translate(278,74)"/>
</svg>
